# xmcd
#
# Track frame offsets:
#	150
#	19981
#	35160
#	52978
#	69222
#	89555
#	111468
#	128380
#	144359
#	162397
#	186581
#	207249
#	224879
#	240873
#	261436
#	276755
#	296765
#
# Disc length: 4241 seconds
#
# Revision: 0
# Processed by: cddbd v1.5.2PL0 Copyright (c) Steve Scherf et al.
# Submitted via: EasyCDDAExtractor 10.0.1.1
#
DISCID=0e108f11
DTITLE=Sinik and Reeno - Hors serim vol 2
DYEAR=2006
DGENRE=Rap
TTITLE0=position feu
TTITLE1=levez les bras
TTITLE2=niggaz
TTITLE3=12 mesures 2 flow
TTITLE4=la taule
TTITLE5=invincible
TTITLE6=en toute franchise
TTITLE7=la rue
TTITLE8=comme par magie
TTITLE9=la grande evasion
TTITLE10=ultime saccage
TTITLE11=dans la mentalité
TTITLE12=suis la
TTITLE13=emissaire
TTITLE14=bedo, popo
TTITLE15=come again
TTITLE16=on va a la plage
EXTD=
EXTT0=
EXTT1=
EXTT2=
EXTT3=
EXTT4=
EXTT5=
EXTT6=
EXTT7=
EXTT8=
EXTT9=
EXTT10=
EXTT11=
EXTT12=
EXTT13=
EXTT14=
EXTT15=
EXTT16=
PLAYORDER=
